<svg height="494" width="720" xmlns="http://www.w3.org/2000/svg">
<rect height="494" fill="#555" width="720"></rect>
<text fill="#7f7" font-family="Courier New" font-size="12" xml:space="preserve">
<tspan x="10" y="26">2017-04-28 00:27:55 +0800</tspan>
<tspan x="10" y="42">[npm publishAfterCommitAfterBuild]</tspan>
<tspan x="10" y="58">2017-04-26 13:18:06 +0000</tspan>
<tspan x="10" y="74">[npm publishAfterCommit]</tspan>
<tspan x="10" y="90"></tspan>
<tspan x="10" y="106">2017-04-26 13:18:04 +0000</tspan>
<tspan x="10" y="122">[ci skip] npm published</tspan>
<tspan x="10" y="138"></tspan>
<tspan x="10" y="154">2017-04-26 13:16:10 +0000</tspan>
<tspan x="10" y="170">[npm publishAfterCommitAfterBuild]</tspan>
<tspan x="10" y="186"></tspan>
<tspan x="10" y="202">2017-04-19 08:16:23 +0000</tspan>
<tspan x="10" y="218">[ci skip] npm published</tspan>
<tspan x="10" y="234"></tspan>
<tspan x="10" y="250">2017-04-19 06:19:23 +0800</tspan>
<tspan x="10" y="266">[npm publishAfterCommitAfterBuild]</tspan>
<tspan x="10" y="282">2017-04-17 11:28:30 +0000</tspan>
<tspan x="10" y="298">[ci skip] npm published</tspan>
<tspan x="10" y="314"></tspan>
<tspan x="10" y="330">2017-04-17 16:18:41 +0800</tspan>
<tspan x="10" y="346">[npm publishAfterCommitAfterBuild]</tspan>
<tspan x="10" y="362">2017-04-11 12:32:12 +0000</tspan>
<tspan x="10" y="378">[ci skip] npm published</tspan>
<tspan x="10" y="394"></tspan>
<tspan x="10" y="410">2017-04-11 08:16:01 +0000</tspan>
<tspan x="10" y="426">[npm publishAfterCommitAfterBuild]</tspan>
<tspan x="10" y="442"></tspan>
<tspan x="10" y="458">2014-03-26 02:31:50 +0700</tspan>
<tspan x="10" y="474">add blank README.md</tspan>
</text>
</svg>
